<?xml version="1.0" encoding="UTF-8"?><svg id="a" xmlns="http://www.w3.org/2000/svg" viewBox="0 0 460.14 223.66"><defs><style>.b{fill:#fff;}.c{fill:#ce181e;}</style></defs><g><path class="b" d="M.25,92.49l7-10.38V13.75L0,2.87V1.75H30.75v1.12l-7.25,11.12V88.87h14.5c9,0,15.25-5.5,17-15.12l13.75,10.12c-2.37,4.62-8.25,9.75-29.5,9.75H.25v-1.12Z"/><path class="b" d="M71.99,92.37l7.75-10.38V13.25l-4.88-10.25V1.75h26v1.25l-4.87,10.25V81.99l7.75,10.38v1.25h-31.75v-1.25Z"/><path class="b" d="M136.49,6.25V44.5h15.62l10-5.88h1.5v19h-1.37l-10.12-8.12h-15.62v32.49l8.25,10.38v1.25h-32.25v-1.25l7.75-10.38V13.37l-8.25-10.38V1.75h62.75l4.5,20.12h-2.25l-17.5-15.62h-23Z"/><path class="b" d="M257.61,87.37c-5.38,4.5-11.12,6.25-33.87,6.25h-39.62v-1.25l7.12-10.25V13.37l-9.12-10.38V1.75h63.62l4.5,20.12h-2.37l-17.37-15.62h-23V44.38h16.25l10-6.25h1.5v20.37h-1.37l-10.12-9.12h-16.25v39.49h11.87c13.75,0,20.87-4.12,25.62-14.75l12.62,13.25Z"/><path class="b" d="M290.35,47.75c0-29.12,20.87-47.75,48.75-47.75,29.25,0,50.5,18.75,50.5,47.75s-21.75,47.62-49,47.62c-28.87,0-50.25-18.87-50.25-47.62Zm81.25,3.75c0-26.12-14.62-47.25-34.5-47.25-21,0-28.75,17.75-28.75,38.62,0,27,14.5,48.25,34.87,48.25s28.38-18,28.38-39.62Z"/><path class="b" d="M417.09,6.25V44.5h15.62l10-5.88h1.5v19h-1.37l-10.12-8.12h-15.62v32.49l8.25,10.38v1.25h-32.25v-1.25l7.75-10.38V13.37l-8.25-10.38V1.75h62.75l4.5,20.12h-2.25l-17.5-15.62h-23Z"/></g><path class="b" d="M37,120.68H.57v1.4l8.97,11.63v76.92l-8.41,11.63v1.4H36.72v-1.4l-8.97-11.63v-37.83c4.48,1.96,10.09,3.08,15.55,3.08,6.87,0,37.13-1.54,37.13-27.88,0-24.52-27.18-27.32-43.43-27.32Zm3.78,49.46c-5.46,0-9.81-1.26-13.03-2.94v-41.47h8.12c17.79,0,26.2,7.28,26.2,22,0,19.33-13.31,22.42-21.3,22.42Z"/><path class="b" d="M322.44,218.33h-13.31v-44.66h18.21l11.35,10.23h1.54v-22.84h-1.68l-11.21,7.01h-18.21v-42.34h25.78l19.48,17.51h2.66l-5.04-22.56h-71.31v1.4l10.23,11.63v77.06l-7.99,11.49v1.4h44.41c25.5,0,31.94-1.96,37.97-7l-14.15-14.85c-5.32,11.91-13.31,16.53-28.72,16.53Z"/><path class="b" d="M447.84,213.16l-24.54-41.5-3.6-1.16c11.66-1.71,25.89-7.18,25.89-24.46,0-24.8-31.38-25.36-43.57-25.36h-32.08v1.26l9.11,11.77v76.92l-8.69,11.63v1.4h35.31v-1.4l-8.41-11.63v-39.37h7.99l31.52,52.4h22.24l1.13-4.62-12.3-5.87Zm-50.58-46.95v-40.49h4.76c17.23,0,26.48,6.03,26.48,18.91,0,14.85-7.85,21.58-24.52,21.58h-6.72Z"/><polygon class="b" points="237.81 165.04 228.71 162.1 260.23 133.57 274.38 122.08 274.38 120.68 244.68 120.68 244.68 122.08 250.84 133.29 217.64 163.69 217.64 133.57 225.48 122.08 225.48 120.68 191.86 120.68 191.86 122.08 199.42 133.57 199.42 210.63 191.02 222.26 191.02 223.66 226.04 223.66 226.04 222.26 217.64 210.63 217.64 172.1 221.14 168.88 221.15 168.87 253.81 223.66 277.17 223.66 278.3 219.04 266 213.16 237.81 165.04"/><g><polygon class="c" points="112.5 213.24 101.89 222.25 101.89 223.66 117.38 223.66 145.68 223.66 161.17 223.66 161.17 222.25 150.56 213.24 112.5 213.24"/><path class="c" d="M131.47,195.47c.39-.91,.83-2.38,.94-4.66,.52-10.93-6.31-13.84-11.1-18.84-4.15-4.32-4.58-10.82-2.58-17.79,.26,7.06,4.46,10.77,9.8,12.7,0,0-4.52-5.43-5.46-21.43-.56-9.68,1.7-16.15,3.95-22.25,.03-.08,.06-.17,.09-.26-12.53,19.01-46.76,37.68-46.76,61.04,0,26.05,38.54,34.57,51.11,11.48Z"/><path class="c" d="M177.53,167.51c-10.97-18-39.72-34.81-45.03-52.05h-1.7c-.13,.43-.28,.86-.45,1.29-1.37,5.57-3.24,15.03,.04,24.6,3.86,11.26,17.87,21.19,19.53,32.86,2.45,17.2-13.41,22.15-16.81,23.41,16.81,25.36,65.42,5.16,44.42-30.11Z"/></g></svg>